<svg xmlns="http://www.w3.org/2000/svg" enable-background="new 0 0 64 64" viewBox="0 0 64 64"><path fill="#556270" d="M52,32c0,6.2-2.5,11.8-6.4,15.9C42.8,41.5,36.4,37,29,37s-13.8,4.5-16.6,10.9C8.5,43.8,6,38.2,6,32
		C6,19.3,16.3,9,29,9S52,19.3,52,32z"/><circle cx="29" cy="27" r="9" fill="#ffe600"/><path fill="#d4c000" d="M29,18c-0.3,0-0.7,0-1,0.1c4.5,0.5,8,4.3,8,8.9c0,4.6-3.5,8.4-8,8.9c0.3,0,0.7,0.1,1,0.1c5,0,9-4,9-9
			C38,22,34,18,29,18z"/><path fill="#fca90f" d="M45.6,47.9C41.4,52.3,35.5,55,29,55s-12.4-2.7-16.6-7.1C15.2,41.5,21.6,37,29,37S42.8,41.5,45.6,47.9z"/><path fill="#d28d0c" d="M29,37c-0.3,0-0.7,0-1,0c7,0.4,12.9,4.8,15.6,10.9c-4,4.1-9.4,6.8-15.6,7c0.3,0,0.7,0,1,0
			c6.5,0,12.4-2.7,16.6-7.1C42.8,41.5,36.4,37,29,37z"/><path fill="#fffdd1" d="M56,38H44c-1.1,0-2-0.9-2-2V24c0-1.1,0.9-2,2-2h12c1.1,0,2,0.9,2,2v12C58,37.1,57.1,38,56,38z"/><path fill="#556270" d="M54,31h-8c-0.6,0-1-0.4-1-1s0.4-1,1-1h8c0.6,0,1,0.4,1,1S54.6,31,54,31z"/><path fill="#556270" d="M50,35c-0.6,0-1-0.4-1-1v-8c0-0.6,0.4-1,1-1s1,0.4,1,1v8C51,34.6,50.6,35,50,35z"/></svg>