<svg xmlns="http://www.w3.org/2000/svg" fill-rule="evenodd" stroke-linejoin="round" stroke-miterlimit="2" clip-rule="evenodd" viewBox="0 0 32 32"><g transform="translate(-52 -104)"><path fill="#5490f2" d="M75,130.305C75,129.999 74.859,129.709 74.618,129.52C74.378,129.33 74.063,129.261 73.765,129.333C71.245,129.943 68.52,128.858 67.159,126.5C65.503,123.632 66.487,119.96 69.355,118.304C70.743,117.503 72.32,117.32 73.765,117.669C74.063,117.742 74.377,117.673 74.618,117.483C74.859,117.294 75,117.004 75,116.698L75,111C75,110.735 74.895,110.48 74.707,110.293L68.707,104.293C68.52,104.105 68.265,104 68,104C68,104 59.869,104 56,104C54.343,104 53,105.343 53,107C53,112.455 53,127.545 53,133C53,133.796 53.316,134.559 53.879,135.121C54.441,135.684 55.204,136 56,136C59.832,136 68.168,136 72,136C72.796,136 73.559,135.684 74.121,135.121C74.684,134.559 75,133.796 75,133C75,131.723 75,130.305 75,130.305Z"/><path fill="#6138b0" d="M68.355,116.572C64.531,118.78 63.219,123.676 65.427,127.5C67.635,131.324 72.531,132.636 76.355,130.428C80.179,128.221 81.491,123.324 79.283,119.5C77.076,115.676 72.179,114.364 68.355,116.572Z"/><path fill-opacity=".2" d="M71.845,115.516C74.782,115.331 77.713,116.78 79.283,119.5C81.491,123.324 80.179,128.221 76.355,130.428C74.942,131.244 73.382,131.579 71.865,131.485C73.058,131.41 74.251,131.066 75.355,130.428C79.179,128.221 80.491,123.324 78.283,119.5C76.892,117.09 74.431,115.677 71.845,115.516Z"/><path fill="#ffb61b" d="M98.855,138.934C98.857,138.938 98.857,138.938 98.855,138.934L99.309,138.458C99.679,138.012 99.95,137.606 100.085,137.248C100.113,137.176 100.133,137.073 100.143,137.012C100.105,136.996 100.054,136.977 100.015,136.967C99.839,136.925 99.629,136.912 99.391,136.918C98.943,136.928 98.415,137.007 97.827,137.157C97.358,136.531 96.809,135.992 96.206,135.54C98.037,134.955 99.549,134.8 100.48,135.022C101.168,135.187 101.633,135.54 101.899,136C102.285,136.669 102.239,137.676 101.504,138.842C101.068,139.532 100.375,140.324 99.45,141.137C99.449,141.133 99.449,141.133 99.45,141.137C97.979,142.555 95.914,144.075 93.507,145.464C91.118,146.843 88.788,147.867 86.834,148.434L86.788,148.447C85.621,148.842 84.588,149.046 83.773,149.079C82.396,149.133 81.5,148.669 81.114,148C80.849,147.54 80.775,146.961 80.977,146.282C81.249,145.365 82.14,144.133 83.563,142.84C83.633,143.593 83.817,144.343 84.152,145.052C83.728,145.486 83.396,145.904 83.163,146.287C83.039,146.49 82.946,146.678 82.894,146.852C82.883,146.891 82.874,146.945 82.869,146.985C82.927,147.007 83.025,147.041 83.102,147.054C83.48,147.115 83.967,147.083 84.538,146.986L85.223,146.821C87.197,146.384 89.806,145.291 92.507,143.732C95.228,142.161 97.493,140.433 98.855,138.934Z" transform="translate(-19.138 -18.425)"/><path fill-opacity=".2" d="M79.871,116.521C80.452,116.476 80.948,116.503 81.342,116.597C82.03,116.762 82.495,117.115 82.761,117.575C83.146,118.243 83.101,119.251 82.365,120.417C81.943,121.085 81.28,121.85 80.397,122.636L80.311,122.712C78.841,124.13 76.775,125.649 74.368,127.039C71.98,128.418 69.649,129.442 67.695,130.009L67.649,130.022C66.483,130.417 65.45,130.621 64.635,130.653C64.387,130.663 64.155,130.656 63.939,130.634C64.701,130.569 65.624,130.369 66.649,130.022L66.695,130.009C68.649,129.442 70.98,128.418 73.368,127.039C75.775,125.649 77.841,124.13 79.311,122.712L79.397,122.636C80.28,121.85 80.943,121.085 81.365,120.417C82.101,119.251 82.146,118.243 81.761,117.575C81.495,117.115 81.03,116.762 80.342,116.597C80.198,116.563 80.041,116.537 79.871,116.521Z"/><path fill="#fff" d="M59,11L62,11C62.828,11 63.5,10.552 63.5,10C63.5,9.448 62.828,9 62,9L59,9C58.172,9 57.5,9.448 57.5,10C57.5,10.552 58.172,11 59,11Z" transform="matrix(.66667 0 0 1 18.667 101)"/><path fill="#fff" d="M59,9L62,9C62.237,9 62.429,9.448 62.429,10C62.429,10.552 62.237,11 62,11L59,11C58.763,11 58.571,10.552 58.571,10C58.571,9.448 58.763,9 59,9Z" transform="matrix(-2.33333 0 0 1 202.667 105)"/><path fill="#fff" d="M59,11L62,11C63.656,11 65,10.552 65,10C65,9.448 63.656,9 62,9L59,9C57.344,9 56,9.448 56,10C56,10.552 57.344,11 59,11Z" transform="matrix(.33333 0 0 1 44.333 101)"/><path fill-opacity=".2" d="M20,0C20.265,-0 20.52,0.105 20.707,0.293L26.707,6.293C26.895,6.48 27,6.735 27,7L22,7C20.895,7 20,6.105 20,5L20,0Z" transform="translate(48 104)"/></g></svg>