<svg xmlns="http://www.w3.org/2000/svg" width="200" height="200" enable-background="new 0 0 200 200" viewBox="0 0 200 200"><path fill="#5E889E" d="M200,51.813v34.62c-1.312,5.54-4.219,10.628-8.513,14.755c-6.04,5.797-14.09,8.992-22.655,8.992H114.98  v-10.54c0-4.454-3.645-8.098-8.099-8.098H93.118c-4.452,0-8.096,3.645-8.096,8.098v10.54H31.167c-8.565,0-16.613-3.195-22.655-8.992  C4.214,97.067,1.312,91.975,0,86.437V51.813C0,44.35,6.11,38.24,13.574,38.24h172.854C193.891,38.24,200,44.35,200,51.813z   M106.882,128.817c0.713,0,1.308-0.596,1.308-1.308v-10.542v-6.787v-10.54c0-0.712-0.595-1.312-1.308-1.312H93.118  c-0.71,0-1.312,0.6-1.312,1.312v10.54v6.787v10.542c0,0.712,0.602,1.308,1.312,1.308H106.882z M196.19,106.083  c-7.316,7.017-17.026,10.885-27.358,10.885H114.98v10.542c0,4.448-3.645,8.095-8.099,8.095H93.118c-4.452,0-8.096-3.646-8.096-8.095  v-10.542H31.167c-10.33,0-20.042-3.868-27.357-10.885c-1.39-1.335-2.662-2.752-3.81-4.239v73.489c0,7.469,6.11,13.574,13.574,13.574  h172.854c7.463,0,13.572-6.105,13.572-13.574v-73.489C198.85,103.331,197.583,104.748,196.19,106.083z M131.296,15.069  c-2.652-2.652-6.127-3.977-9.599-3.977H78.307c-3.474,0-6.951,1.325-9.601,3.977c-2.648,2.65-3.974,6.124-3.974,9.597v6.787h11.535  v-6.787c0-0.385,0.105-0.948,0.6-1.44c0.49-0.492,1.052-0.599,1.44-0.599h43.391c0.382,0,0.946,0.107,1.437,0.599  c0.494,0.492,0.599,1.055,0.599,1.44v6.787h11.535v-6.787C135.268,21.193,133.944,17.72,131.296,15.069z"/></svg>