<svg xmlns="http://www.w3.org/2000/svg" data-name="Layer 1" viewBox="0 0 32 32"><path fill="#8c8891" d="M27.5 31.25a.5.5 0 0 1-.5-.5v-3a.5.5 0 0 1 1 0v3A.5.5 0 0 1 27.5 31.25zM31.5 10.25a.5.5 0 0 1-.5-.5v-5a.5.5 0 0 0-.5-.5h-1a.5.5 0 0 1 0-1h1A1.5 1.5 0 0 1 32 4.75v5A.5.5 0 0 1 31.5 10.25z"/><path fill="#56bc8d" d="M29.5,25.75l-2,3-2-3v-23a2,2,0,0,1,2-2h0a2,2,0,0,1,2,2Z"/><path fill="#e0e0e2" d="M29.5,17.75h0a4.47,4.47,0,0,0-4,0h0v6h0a4.47,4.47,0,0,1,4,0h0Z"/><line x1="25.5" x2="29.5" y1="5.75" y2="5.75" fill="#4880bd"/><rect width="30" height="21" x="-3" y="5.25" fill="#4880bd" rx="2" ry="2" transform="rotate(90 12 15.75)"/><path fill="#8c8891" d="M2.5 4.25H.5a.5.5 0 0 1 0-1h2a.5.5 0 0 1 0 1zM2.5 8.25H.5a.5.5 0 0 1 0-1h2a.5.5 0 0 1 0 1zM2.5 12.25H.5a.5.5 0 0 1 0-1h2a.5.5 0 0 1 0 1zM2.5 16.25H.5a.5.5 0 0 1 0-1h2a.5.5 0 0 1 0 1zM2.5 20.25H.5a.5.5 0 0 1 0-1h2a.5.5 0 0 1 0 1zM2.5 24.25H.5a.5.5 0 0 1 0-1h2a.5.5 0 0 1 0 1zM2.5 28.25H.5a.5.5 0 0 1 0-1h2a.5.5 0 0 1 0 1z"/><rect width="13" height="4" x="5.5" y="3.75" fill="#e0e0e2" rx=".5" ry=".5"/><path fill="#e0e0e2" d="M16.5,11.25h-9a.5.5,0,0,1,0-1h9a.5.5,0,0,1,0,1Z"/></svg>