<svg xmlns="http://www.w3.org/2000/svg" width="25" height="25" viewBox="0 0 25 25"><g transform="translate(0 -1027.362)"><circle cx="12.5" cy="1039.862" r="12.5" fill="#1d67b1"/><path fill="#154082" style="line-height:normal;text-indent:0;text-align:start;text-decoration-line:none;text-decoration-style:solid;text-decoration-color:#000;text-transform:none;block-progression:tb;isolation:auto;mix-blend-mode:normal" d="M 13.912109 24.904297 A 12.5 12.5 0 0 0 14.625 24.818359 A 12.5 12.5 0 0 0 15.84375 24.544922 A 12.5 12.5 0 0 0 17.029297 24.150391 A 12.5 12.5 0 0 0 18.169922 23.640625 A 12.5 12.5 0 0 0 19.253906 23.017578 A 12.5 12.5 0 0 0 20.269531 22.291016 A 12.5 12.5 0 0 0 21.208984 21.466797 A 12.5 12.5 0 0 0 22.060547 20.552734 A 12.5 12.5 0 0 0 22.816406 19.558594 A 12.5 12.5 0 0 0 23.470703 18.492188 A 12.5 12.5 0 0 0 24.013672 17.367188 A 12.5 12.5 0 0 0 24.441406 16.193359 A 12.5 12.5 0 0 0 24.75 14.982422 A 12.5 12.5 0 0 0 24.9375 13.748047 A 12.5 12.5 0 0 0 25 12.5 A 12.5 12.5 0 0 0 24.980469 11.972656 L 21.007812 8 L 19.007812 8 L 15.007812 4 L 5.0078125 4 L 5.0078125 4.5 L 5.0078125 14 L 9.0078125 18 L 9.0078125 20 L 13.912109 24.904297 z " color="#000" font-family="sans-serif" font-weight="400" transform="translate(0 1027.362)"/><path fill="#fff" d="M 0,0 0,0.5 0,10 4,10 4,16 16,16 16,4 10,4 10,0 0,0 Z M 1,1 9,1 9,4 4,4 4,4.5 4,9 1,9 1,1 Z m 4,4 5,0 5,0 0,10 -10,0 0,-5 0,-5 z" color="#000" font-family="sans-serif" font-weight="400" overflow="visible" transform="translate(5.008 1031.362)" style="line-height:normal;text-indent:0;text-align:start;text-decoration-line:none;text-decoration-style:solid;text-decoration-color:#000;text-transform:none;block-progression:tb;isolation:auto;mix-blend-mode:normal"/></g></svg>