<svg xmlns="http://www.w3.org/2000/svg" width="194" height="218" fill-rule="evenodd" clip-rule="evenodd" image-rendering="optimizeQuality" shape-rendering="geometricPrecision" text-rendering="geometricPrecision" viewBox="0 0 8469 9525"><path fill="#83cf8f" d="M4654 115l3396 1961c267,154 419,418 419,726l0 3921c0,308 -153,572 -419,726l-3396 1961c-267,154 -572,154 -839,0l-3396 -1961c-267,-154 -419,-418 -419,-726l0 -3921c0,-308 153,-572 419,-726l3396 -1961c267,-154 572,-154 839,0z"/><path fill="#fcd34e" d="M4356 9l-513 3028 755 0 456 -2690 -401 -231c-95,-55 -196,-90 -297,-106z"/><path fill="#fff" d="M1910 3348l1512 0 0 -207c0,-175 143,-350 319,-350l987 0c175,0 318,175 318,350l0 207 1512 0c175,0 317,143 317,317l0 2837c0,175 -143,317 -317,317l-4648 0c-175,0 -317,-143 -317,-317l0 -2837c0,-175 143,-317 317,-317zm1792 0l1064 0 0 -238c0,-98 -94,-119 -209,-119l-647 0c-115,0 -209,21 -209,119l0 238z"/><path fill="#e4e7ed" d="M2103 3562l4262 0c160,0 291,125 291,278l0 2487c0,153 -131,278 -291,278l-4262 0c-160,0 -291,-125 -291,-278l0 -2487c0,-153 131,-278 291,-278z"/><polygon fill="#f0ba7d" points="2924 4900 2992 4900 3196 4900 3264 4900 3291 5187 3340 5226 3443 5292 3094 6116 2745 5292 2848 5226 2897 5187"/><polygon fill="#ecf0f1" points="2812 5247 2531 5337 3094 6116 3573 5311 3374 5248 3199 5371 2989 5371"/><polygon fill="#ff5b62" points="3031 5360 3055 5419 3002 6096 3094 6167 3186 6096 3133 5419 3157 5360 3094 5358"/><path fill="#6b7f9e" d="M2817 5246l-498 159c0,0 -65,34 -84,136 -19,98 -28,197 -43,332 238,218 554,351 902,351 348,0 664,-133 902,-351 -15,-135 -24,-234 -43,-332 -19,-102 -84,-136 -84,-136l-495 -157 -280 822 -277 -825z"/><path fill="#8597b1" d="M2817 5246l-107 34 -21 273c0,0 6,22 23,20l97 36c0,0 6,6 1,14l-83 57 287 540c27,2 54,2 81,2 27,0 54,-1 81,-2l287 -540 -83 -57c-6,-8 1,-14 1,-14l97 -36c17,2 23,-20 23,-20l-21 -272 -104 -33 -280 822 -277 -825z"/><path fill="#fed298" d="M2698 4318c0,27 -10,53 -9,78 -91,-17 -47,253 4,291 4,3 14,-4 23,-9 18,99 170,365 267,477 27,31 192,31 218,1 99,-109 252,-378 269,-478 9,5 19,12 23,9 52,-37 95,-308 4,-291 1,-26 -9,-52 -9,-78 -5,-210 -195,-315 -396,-316 -200,1 -390,106 -396,316z"/><path fill="#596366" d="M2820 4049c-29,-3 -132,28 -145,138 -12,110 -6,211 -6,211 0,0 61,15 68,78 8,62 2,62 2,62l22 -5 16 -107c91,-57 -1,-141 90,-161 246,175 462,145 560,63 0,0 -23,86 -5,117 18,31 7,79 7,79l23 -1c0,0 -4,-127 47,-126 193,-318 -417,-713 -678,-347z"/><path fill="#fff" d="M2894 5146c7 1-83 102-83 102l77 263 206-154c-113-56-181-128-200-212zM3294 5146c-7 1 83 102 83 102l-77 263-206-154c113-56 181-128 200-212z"/><path fill="#c9cacc" d="M4234 4017l2109 0 0 117 -2109 0 0 -117zm854 2140l1255 0 0 115 -1255 0 0 -115zm-854 -1317l1202 0 0 117 -1202 0 0 -117zm0 -274l2109 0 0 117 -2109 0 0 -117zm0 -274l2109 0 0 117 -2109 0 0 -117z"/><path fill="#ffe356" d="M4099 12l513 3026 -756 0 -455 -2683 413 -239c91,-53 187,-87 284,-104z"/></svg>