<svg xmlns="http://www.w3.org/2000/svg" width="120" height="76" viewBox="0 0 120 76"><g fill="none" fill-rule="evenodd"><path fill="#F4F4F4" d="M111.998561,0 L8.0014394,0 C3.58236644,0 0,3.58906554 0,8.00758637 L0,67.9924136 C0,72.4148815 3.59136164,76 8.0014394,76 L111.998561,76 C116.417634,76 120,72.4109345 120,67.9924136 L120,8.00758637 C120,3.58511853 116.408638,0 111.998561,0 Z"/><path fill="#5F5F5F" d="M43.2506731,62.5230937 C38.7122476,62.5230937 35,58.8085165 35,54.2690764 L35,54.2690764 L35,21.254354 C35,16.7135671 38.7122476,13 43.2506731,13 L43.2506731,13 L76.2493269,13 C80.7877524,13 84.5,16.7135671 84.5,21.254354 L84.5,21.254354 L84.5,54.2690764 C84.5,58.8085165 80.7877524,62.5230937 76.2493269,62.5230937 L76.2493269,62.5230937 L43.2506731,62.5230937 L43.2506731,62.5230937 L43.2506731,62.5230937 L43.2506731,62.5230937 Z M44,25.3172033 L44,50.956569 C44,52.3660947 45.1531743,53.5188948 46.5609668,53.5188948 L46.5609668,53.5188948 L72.1900188,53.5188948 C73.5981399,53.5188948 74.75,52.3660947 74.75,50.956569 L74.75,50.956569 L74.75,25.3172033 C74.75,23.9076776 73.5981399,22.7545488 72.1900188,22.7545488 L72.1900188,22.7545488 L46.5609668,22.7545488 C45.1531743,22.7545488 44,23.9076776 44,25.3172033 L44,25.3172033 Z M55.0832336,43.7643461 C54.3491624,43.7643461 53.75,43.1639015 53.75,42.4299583 L53.75,42.4299583 L53.75,33.0934347 C53.75,32.3591922 54.3491624,31.7587476 55.0832336,31.7587476 L55.0832336,31.7587476 L64.4161681,31.7587476 C65.149641,31.7587476 65.75,32.3591922 65.75,33.0934347 L65.75,33.0934347 L65.75,42.4299583 C65.75,43.1639015 65.149641,43.7643461 64.4161681,43.7643461 L64.4161681,43.7643461 L55.0832336,43.7643461 L55.0832336,43.7643461 L55.0832336,43.7643461 L55.0832336,43.7643461 Z"/></g></svg>