<svg xmlns="http://www.w3.org/2000/svg" data-name="Layer 1" viewBox="0 0 1000 1000"><path fill="#e1e1ff" d="M870.27,257.95V742a26.14,26.14,0,0,1-26.1,26.1H155.81A26.12,26.12,0,0,1,129.73,742V257.95a26.11,26.11,0,0,1,26.08-26.08H844.17A26.12,26.12,0,0,1,870.27,257.95Z"/><circle cx="511.74" cy="488.12" r="100.88" fill="#a6a6ff"/><circle cx="220.08" cy="284.99" r="21.9" fill="#a6a6ff"/><path fill="#e1e1ff" d="M449.31,568.3,457,539.13l30.14-24.27,29.3-3.56s44.25-.19,58.13,54.19C574.56,565.49,523.37,620.8,449.31,568.3Z"/><circle cx="306.15" cy="284.99" r="21.9" fill="#a6a6ff"/><circle cx="392.22" cy="284.99" r="21.9" fill="#a6a6ff"/><circle cx="511.73" cy="464.62" r="27.14" fill="#e1e1ff"/><circle cx="398.22" cy="675.24" r="13.28" fill="#a6a6ff"/><circle cx="455.18" cy="675.24" r="13.28" fill="#a6a6ff"/><circle cx="511.73" cy="675.24" r="13.28" fill="#a6a6ff"/><circle cx="568.59" cy="675.24" r="13.28" fill="#a6a6ff"/><circle cx="625.45" cy="675.24" r="13.28" fill="#a6a6ff"/><path fill="#231f20" d="M848.57,228.44H151.42A26.45,26.45,0,0,0,125,254.85V745.13a26.46,26.46,0,0,0,26.42,26.43H848.57A26.47,26.47,0,0,0,875,745.13V254.85A26.46,26.46,0,0,0,848.57,228.44Zm17.37,516.69a17.4,17.4,0,0,1-17.37,17.37H151.42a17.39,17.39,0,0,1-17.36-17.37V254.85a17.37,17.37,0,0,1,17.36-17.36H848.57a17.39,17.39,0,0,1,17.37,17.36Z"/><path fill="#231f20" d="M823.28 331.12H176.72a21.55 21.55 0 00-21.52 21.53V719.83a21.55 21.55 0 0021.52 21.52H823.28a21.54 21.54 0 0021.51-21.52V352.64A21.54 21.54 0 00823.28 331.12zm12.45 388.71a12.47 12.47 0 01-12.45 12.46H176.72a12.48 12.48 0 01-12.46-12.46V352.64a12.48 12.48 0 0112.46-12.47H823.28a12.47 12.47 0 0112.45 12.47zM220.07 256.31A27.94 27.94 0 10248 284.24 28 28 0 00220.07 256.31zm0 46.81A18.88 18.88 0 11239 284.24 18.9 18.9 0 01220.07 303.12zM306.16 256.31a27.94 27.94 0 1027.93 27.93A28 28 0 00306.16 256.31zm0 46.81A18.88 18.88 0 11325 284.24 18.91 18.91 0 01306.16 303.12zM392.23 256.31a27.94 27.94 0 1027.93 27.93A28 28 0 00392.23 256.31zm0 46.81a18.88 18.88 0 1118.87-18.88A18.91 18.91 0 01392.23 303.12z"/><path fill="#231f20" d="M713 572.78a4.53 4.53 0 01-3.61-7.26l20.74-27.4-20.74-27.4a4.53 4.53 0 017.23-5.47l22.8 30.14a4.53 4.53 0 010 5.47L716.57 571A4.52 4.52 0 01713 572.78zM310.52 572.78a4.52 4.52 0 01-3.62-1.8l-22.8-30.13a4.53 4.53 0 010-5.47l22.8-30.14a4.53 4.53 0 117.23 5.47l-20.74 27.4 20.74 27.4a4.53 4.53 0 01-3.61 7.26zM653.29 612.41H370.18a4.53 4.53 0 010-9.06H653.29a4.53 4.53 0 010 9.06zM600.85 630.53H422.62a4.53 4.53 0 010-9.06H600.85a4.53 4.53 0 010 9.06zM398 657.71a17.53 17.53 0 1017.52 17.53A17.55 17.55 0 00398 657.71zm0 26a8.47 8.47 0 118.46-8.46A8.48 8.48 0 01398 683.71zM454.88 657.71a17.53 17.53 0 1017.53 17.53A17.54 17.54 0 00454.88 657.71zm0 26a8.47 8.47 0 118.47-8.46A8.47 8.47 0 01454.88 683.71zM511.73 657.71a17.53 17.53 0 1017.53 17.53A17.54 17.54 0 00511.73 657.71zm0 26a8.47 8.47 0 118.48-8.46A8.47 8.47 0 01511.73 683.71zM568.58 657.71a17.53 17.53 0 1017.53 17.53A17.54 17.54 0 00568.58 657.71zm0 26a8.47 8.47 0 118.47-8.46A8.47 8.47 0 01568.58 683.71zM625.43 657.71A17.53 17.53 0 10643 675.24 17.56 17.56 0 00625.43 657.71zm0 26a8.47 8.47 0 118.46-8.46A8.48 8.48 0 01625.43 683.71zM511.73 383.45a105.38 105.38 0 00-65.61 187.86l0 0c.33.27.66.54 1 .8a105.17 105.17 0 00129 .08c.41-.3.81-.61 1.2-.93a105.38 105.38 0 00-65.67-187.83zM577.4 559.31a94.83 94.83 0 01-8.12 6.8 96.19 96.19 0 01-115.13 0 94.67 94.67 0 01-8.1-6.8 96.36 96.36 0 11131.34 0z"/><path fill="#231f20" d="M511.73,431a33.67,33.67,0,1,0,33.67,33.66A33.7,33.7,0,0,0,511.73,431Zm0,58.27a24.61,24.61,0,1,1,24.61-24.61A24.64,24.64,0,0,1,511.73,489.23Z"/><path fill="#231f20" d="M574,572.78a4.53,4.53,0,0,1-4.52-4.23,57.9,57.9,0,0,0-115.54,0,4.59,4.59,0,0,1-4.83,4.22,4.53,4.53,0,0,1-4.22-4.83,67,67,0,0,1,133.63,0,4.53,4.53,0,0,1-4.22,4.82Z"/></svg>