<svg xmlns="http://www.w3.org/2000/svg" width="32" height="32" enable-background="new 0 0 32 32" viewBox="0 0 32 32"><path fill="#E0E0E0" d="M24,1H8C6.346,1,5,2.346,5,4v24c0,1.654,1.346,3,3,3h16c1.654,0,3-1.346,3-3V4C27,2.346,25.654,1,24,1z"/><path fill="#9E9E9E" d="M27,4v24c0,1.65-1.35,3-3,3H8c-1.65,0-3-1.35-3-3v-2.88c10.95-2.82,19.31-12.1,20.77-23.54
			C26.51,2.13,27,3.01,27,4z"/><circle cx="16" cy="7" r="3" fill="#607D8B"/><path fill="#607D8B" d="M18,11h-4c-1.654,0-3,1.346-3,3v1c0,0.552,0.448,1,1,1h8c0.553,0,1-0.448,1-1v-1
			C21,12.346,19.654,11,18,11z"/><path fill="#455A64" d="M21,13.96V15c0,0.55-0.45,1-1,1h-0.56C19.99,15.35,20.51,14.67,21,13.96z"/><path fill="#2196F3" d="M24,1H8C6.346,1,5,2.346,5,4v24c0,1.654,1.346,3,3,3h16c1.654,0,3-1.346,3-3V4C27,2.346,25.654,1,24,1z
			 M8,3h16c0.552,0,1,0.449,1,1v13H7V4C7,3.449,7.449,3,8,3z"/><path fill="#1976D2" d="M27,4v24c0,1.65-1.35,3-3,3H8c-1.65,0-3-1.35-3-3v-2.88c5.29-1.36,9.97-4.23,13.57-8.12H25V5.42
			c0.35-1.25,0.61-2.53,0.77-3.84C26.51,2.13,27,3.01,27,4z"/><circle cx="11" cy="23" r="3" fill="#FFC107"/><path fill="#FFA000" d="M14,23c0,1.65-1.35,3-3,3c-1.27,0-2.36-0.8-2.79-1.92c1.87-0.73,3.63-1.66,5.28-2.76
			C13.81,21.8,14,22.38,14,23z"/><path fill="#9E9E9E" d="M16 22.079h7c.553 0 1-.448 1-1s-.447-1-1-1h-7c-.552 0-1 .448-1 1S15.448 22.079 16 22.079zM23 23h-7c-.552 0-1 .448-1 1s.448 1 1 1h7c.553 0 1-.448 1-1S23.553 23 23 23zM23 26h-7c-.552 0-1 .448-1 1s.448 1 1 1h7c.553 0 1-.448 1-1S23.553 26 23 26z"/></svg>