<svg xmlns="http://www.w3.org/2000/svg" enable-background="new 0 0 1200 1200" viewBox="0 0 1200 1200"><path d="M1103.7,509.9c-13.3-18-31.5-31-52.9-37.6l-91-28.1v-26.4c17.6-14.2,29.9-34.8,33.4-58.1h6.5c19.4,0,35.1-15.7,35.1-35.1v-12c0-10.6-4.8-20.2-12.2-26.6v-34.6c0-66.7-54.3-121-121-121s-121,54.3-121,121v34.6c-7.5,6.4-12.2,16-12.2,26.6v12c0,19.4,15.7,35.1,35.1,35.1h6.5c3.5,23.4,15.8,43.9,33.4,58.1v26.4l-91,28.1c-13,4-24.9,10.5-35.2,18.9c-5.6-21.4-17-40.9-33.3-56.5c-22.6-21.7-52.4-33.7-83.8-33.7s-61.2,12-83.8,33.7c-16.3,15.6-27.7,35.2-33.3,56.5c-10.3-8.5-22.2-14.9-35.2-18.9l-91-28.1v-26.4c17.6-14.2,29.9-34.8,33.4-58.1h6.5c19.4,0,35.1-15.7,35.1-35.1v-12c0-10.6-4.8-20.2-12.2-26.6v-34.6c0-66.7-54.3-121-121-121c-66.7,0-121,54.3-121,121v34.6c-7.5,6.4-12.2,16-12.2,26.6v12c0,19.4,15.7,35.1,35.1,35.1h6.5c3.5,23.4,15.8,43.9,33.4,58.1v26.4l-91,28.1c-21.3,6.6-39.6,19.6-52.9,37.6C83,527.9,76,549.2,76,571.5v200.1c0,15.1,12.2,27.3,27.3,27.3h191.3c0,0,0,0,0,0h7.4c0,0,0,0,0,0c0,0,0,0,0,0H387c-6.2,13.5-9.4,28.1-9.4,43.2v200.1c0,15.1,12.2,27.3,27.3,27.3h198.8c0,0,0,0,0,0c0,0,0,0,0,0h191.4c15.1,0,27.3-12.2,27.3-27.3V842.1c0-15.1-3.2-29.7-9.4-43.2h84.8c0,0,0,0,0,0h7.4c0,0,0,0,0,0c0,0,0,0,0,0h191.4c15.1,0,27.3-12.2,27.3-27.3V571.5C1124,549.2,1117,527.9,1103.7,509.9z M851.2,466.9l32.5,37.7l-28,19.4l-28.5-49.7L851.2,466.9z M895.8,567.9h11.6l24.6,158.6L901.6,771l-30.4-44.6L895.8,567.9z M909.4,543.9h-15.6l-5.1-13.5l12.9-8.9l12.9,8.9L909.4,543.9z M919.4,504.6l32.5-37.7l23.9,7.4L947.4,524L919.4,504.6z M1010.9,324.6c0,6.1-5,11.1-11.1,11.1h-5.5v-34.2h5.5c1.3,0,2.5,0.2,3.7,0.6c0.9,0.7,1.9,1.2,3,1.6c2.7,2,4.4,5.2,4.4,8.8V324.6z M901.6,154.5c53.5,0,97,43.5,97,97v26.1h-4.3v-4.8c0-3-1.1-5.8-3.1-8L958.3,228c-2.2-2.5-5.3-3.9-8.6-4c-3.3-0.1-6.5,1.2-8.8,3.5c-35.2,35.2-118.9,33.2-119.7,33.2c-3.2-0.1-6.4,1.1-8.7,3.4c-2.3,2.3-3.6,5.4-3.6,8.6v4.8h-4.3v-26.1C804.5,198,848.1,154.5,901.6,154.5z M792.3,324.6v-12c0-3.6,1.7-6.8,4.4-8.8c1.1-0.4,2.1-1,3-1.6c1.2-0.4,2.4-0.6,3.7-0.6h5.5v34.2h-5.5C797.3,335.7,792.3,330.7,792.3,324.6z M832.9,345.8v-56.2v-4.9c24.7-0.7,80.2-5.4,115.5-31.9l22,24.6v12.2v56.2c0,37.9-30.8,68.7-68.7,68.7S832.9,383.7,832.9,345.8z M901.6,438.5c12.1,0,23.7-2.3,34.3-6.6v16.8l-34.3,39.8l-34.3-39.8V432C877.9,436.2,889.5,438.5,901.6,438.5z M759.4,495.3l44.4-13.7l37.6,65.7c1.7,2.9,4.5,5,7.8,5.7c3.3,0.7,6.7,0.1,9.5-1.8l9.7-6.7l4.8,12.7l-25.9,167.5l-0.4,2.7c-0.5,3,0.2,6.2,1.9,8.7l26.5,38.9h-77.5c-12.8-15.1-29.4-26.1-48.5-32l-91-28.1v-26.4c17.6-14.2,29.9-34.8,33.4-58.1h6.5c19.4,0,35.1-15.7,35.1-35.1v-12c0-10.6-4.8-20.2-12.2-26.6v-34.6c0-0.3,0-0.6,0-0.9C731,508.9,744.2,500,759.4,495.3z M531.3,560.2v-4.9c24.7-0.7,80.2-5.4,115.5-31.9l22,24.6v12.2v56.2c0,37.9-30.8,68.7-68.7,68.7s-68.7-30.8-68.7-68.7V560.2z M698.2,572.2c6.1,0,11.1,5,11.1,11.1v12c0,6.1-5,11.1-11.1,11.1h-5.5v-34.2H698.2z M600,709.1c12.1,0,23.7-2.3,34.3-6.6v16.8L600,759.1l-34.3-39.8v-16.8C576.3,706.8,587.9,709.1,600,709.1z M549.6,737.5l32.5,37.7l-28,19.4l-28.5-49.7L549.6,737.5z M594.2,838.4h11.6L630.4,997l-30.4,44.6L569.6,997L594.2,838.4z M607.8,814.4h-15.6l-5.1-13.5l12.9-8.9l12.9,8.9L607.8,814.4z M617.8,775.2l32.5-37.7l23.9,7.4l-28.5,49.7L617.8,775.2z M600,425.1c52.1,0,94.6,40.7,96.9,92.6c0,0.1,0,0.3,0,0.4c0.1,1.4,0.1,2.7,0.1,4v26.1h-4.3v-4.8c0-3-1.1-5.8-3.1-8l-32.9-36.7c-2.2-2.5-5.3-3.9-8.6-4c-3.3-0.1-6.5,1.2-8.8,3.5c-35.2,35.2-118.9,33.2-119.7,33.2c-3.2-0.1-6.4,1.1-8.7,3.4c-2.3,2.3-3.6,5.4-3.6,8.6v4.8H503v-26.1c0-1.3,0-2.6,0.1-4c0-0.1,0-0.3,0-0.4C505.4,465.7,547.9,425.1,600,425.1z M507.3,606.3h-5.5c-6.1,0-11.1-5-11.1-11.1v-12c0-6.1,5-11.1,11.1-11.1h5.5V606.3z M479,521.2c0,0.3,0,0.6,0,0.9v34.6c-7.5,6.4-12.2,16-12.2,26.6v12c0,19.4,15.7,35.1,35.1,35.1h6.5c3.5,23.4,15.8,43.9,33.4,58.1v26.4l-91,28.1c-19.1,5.9-35.7,16.9-48.5,32h-77.5l26.5-38.9c1.4-2,2.1-4.4,2.1-6.8c0-0.7-0.1-1.3-0.2-2l-0.4-2.7l-25.9-167.5l4.8-12.7l9.7,6.7c2,1.4,4.4,2.1,6.8,2.1c0.9,0,1.8-0.1,2.7-0.3c3.3-0.7,6.1-2.8,7.8-5.7l37.6-65.7l44.4,13.7C455.8,500,469,508.9,479,521.2z M248.1,466.9l32.5,37.7l-28,19.4l-28.5-49.7L248.1,466.9z M348.8,466.9l23.9,7.4L344.2,524l-28-19.4L348.8,466.9z M298.4,521.5l12.9,8.9l-5.1,13.5h-15.6l-5.1-13.5L298.4,521.5z M292.6,567.9h11.6l24.6,158.6L298.4,771l-30.4-44.6L292.6,567.9z M407.7,324.6c0,6.1-5,11.1-11.1,11.1h-5.5v-34.2h5.5c1.3,0,2.5,0.2,3.7,0.6c0.9,0.7,1.9,1.2,3,1.6c2.7,2,4.4,5.2,4.4,8.8V324.6z M298.4,154.5c53.5,0,97,43.5,97,97v26.1h-4.3v-4.8c0-3-1.1-5.8-3.1-8L355.2,228c-2.2-2.5-5.3-3.9-8.6-4c-3.3-0.1-6.5,1.2-8.8,3.5c-35.2,35.2-118.9,33.2-119.7,33.2c-3.3-0.1-6.4,1.1-8.7,3.4c-2.3,2.3-3.6,5.4-3.6,8.6v4.8h-4.3v-26.1C201.4,198,244.9,154.5,298.4,154.5z M189.1,324.6v-12c0-3.6,1.7-6.8,4.4-8.8c1.1-0.4,2.1-1,3-1.6c1.2-0.4,2.4-0.6,3.7-0.6h5.5v34.2h-5.5C194.1,335.7,189.1,330.7,189.1,324.6z M229.7,345.8v-56.2v-4.9c24.7-0.7,80.2-5.4,115.5-31.9l22,24.6v12.2v56.2c0,37.9-30.8,68.7-68.7,68.7S229.7,383.7,229.7,345.8z M298.4,438.5c12.1,0,23.7-2.3,34.3-6.6v16.8l-34.3,39.8l-34.3-39.8V432C274.7,436.2,286.3,438.5,298.4,438.5z M100,771.6V571.5c0-35.2,22.6-65.9,56.2-76.3l44.4-13.7l37.6,65.7c1.7,2.9,4.5,5,7.8,5.7c3.3,0.7,6.7,0.1,9.5-1.8l9.7-6.7l4.8,12.7l-25.9,167.5l-0.4,2.7c-0.5,3,0.2,6.2,1.9,8.7l26.5,38.9H103.3C101.5,774.9,100,773.5,100,771.6z M401.6,1042.2V842.1c0-17.4,5.5-33.7,15.2-47c0.6-0.6,1.1-1.3,1.5-2c9.8-12.6,23.4-22.3,39.5-27.2l44.4-13.7l37.6,65.7c1.7,2.9,4.5,5,7.8,5.7c3.3,0.7,6.7,0.1,9.5-1.8l9.7-6.7l4.8,12.7l-25.9,167.5l-0.4,2.7c-0.5,3,0.2,6.2,1.9,8.7l26.5,38.9H404.9C403.1,1045.5,401.6,1044,401.6,1042.2z M798.4,1042.2c0,1.8-1.5,3.3-3.3,3.3H626.4l26.5-38.9c1.4-2,2.1-4.4,2.1-6.8c0-0.7-0.1-1.3-0.2-2l-0.4-2.7l-25.9-167.5l4.8-12.7l9.7,6.7c2,1.4,4.4,2.1,6.8,2.1c0.9,0,1.8-0.1,2.7-0.3c3.3-0.7,6.1-2.8,7.8-5.7l37.6-65.7l44.4,13.7c16.2,5,29.7,14.7,39.5,27.2c0.4,0.7,0.9,1.4,1.5,2c9.7,13.3,15.2,29.6,15.2,47V1042.2z M1100,771.6c0,1.8-1.5,3.3-3.3,3.3H928l26.5-38.9c1.4-2,2.1-4.4,2.1-6.8c0-0.7-0.1-1.3-0.2-2l-0.4-2.7L930,557.1l4.8-12.7l9.7,6.7c2,1.4,4.4,2.1,6.8,2.1c0.9,0,1.8-0.1,2.7-0.3c3.3-0.7,6.1-2.8,7.8-5.7l37.6-65.7l44.4,13.7c33.6,10.4,56.3,41.1,56.3,76.3V771.6z"/></svg>