<svg xmlns="http://www.w3.org/2000/svg" width="32" height="32" viewBox="0 0 32 32"><path  d="M14 2.00004c-3.3019 0-6 2.69813-6 6 0 3.30186 2.6981 6 6 6 3.3019 0 6-2.69814 6-6 0-3.30187-2.6981-6-6-6zm0 2c2.221 0 4 1.77901 4 4 0 2.22098-1.779 4-4 4-2.221 0-4-1.77902-4-4 0-2.22099 1.779-4 4-4zM11 16.00004c-4.9687 0-9 4.0313-9 9v2a1.0000999 1.0000999 0 0 0 1 1h10.8477a1.0000999 1.0000999 0 1 0 0-2H4v-1c0-3.8953 3.1047-7 7-7h4.0156a1.0000999 1.0000999 0 1 0 0-2zM22.9868 15.99997c-.5577.009-.9978.46216-.9902 1.01363v1.08785c-.6365.13114-1.2295.38699-1.7539.7363L19.4751 18.0702c-.2357-.24241-.5032-.33375-.7558-.32029-.7575.0404-1.3856 1.02733-.6583 1.73429l.7715.77147c-.3475.52509-.6031 1.1173-.7324 1.75382h-1.0859c-1.3523-.0191-1.3523 2.01907 0 1.99993h1.0898c.1308.63059.3853 1.21759.7305 1.73821l-.7774.77732c-.9697.94265.4714 2.38369 1.4141 1.414l.7754-.77536c.5236.34807 1.1149.60351 1.75.73435v1.08784c-.019 1.35223 2.019 1.35223 1.9999 0v-1.08589c.6345-.12966 1.2246-.38588 1.748-.73239l.7813.78122c.3931.40426 1.0436.40425 1.4316.004.3879-.40065.3782-1.03329-.018-1.4179l-.7773-.77733c.3482-.52275.6029-1.11388.7343-1.74797h1.0898c.5637.008 1.0224-.45213 1.0137-1.00973-.01-.55758-.4622-.99774-1.0137-.9902h-1.0859c-.13-.64003-.3857-1.23636-.7362-1.76359l.7713-.77146c.4043-.39295.4044-1.04347 0-1.43157-.1992-.193-.4558-.28763-.7108-.28515v0 0c-.255.005-.508.10606-.6993.30272l-.7735.7734C25.2275 18.48619 24.6359 18.22955 23.9999 18.0996v-1.0859c.01-.56371-.4522-1.02234-1.0097-1.01363zm.014 3.99985c1.6687 0 2.9999 1.33124 2.9999 2.99987 0 1.66864-1.3312 2.99989-2.9999 2.99989-1.6688 0-3-1.33125-3-2.99989 0-1.66863 1.3312-2.99987 3-2.99987z" color="#000" font-family="sans-serif" font-weight="400" overflow="visible" style="line-height:normal;font-variant-ligatures:normal;font-variant-position:normal;font-variant-caps:normal;font-variant-numeric:normal;font-variant-alternates:normal;font-feature-settings:normal;text-indent:0;text-align:start;text-decoration-line:none;text-decoration-style:solid;text-decoration-color:#000;text-transform:none;text-orientation:mixed;shape-padding:0;isolation:auto;mix-blend-mode:normal"/></svg>