<svg xmlns="http://www.w3.org/2000/svg" data-name="Layer 1" viewBox="0 0 64 64"><path d="M59,8H13a5.00588,5.00588,0,0,0-5,5,2,2,0,0,0,4,0,1.001,1.001,0,0,1,1-1H59a1.001,1.001,0,0,1,1,1v7H55.858A3.99577,3.99577,0,0,0,52,17H4a4.00427,4.00427,0,0,0-4,4V52a4.00427,4.00427,0,0,0,4,4H52a4.00427,4.00427,0,0,0,4-4V47h3a5.00588,5.00588,0,0,0,5-5V13A5.00588,5.00588,0,0,0,59,8Zm1,23H56V24h4ZM4,52V21H52l.00293,31Zm55-9H56V35h4v7A1.001,1.001,0,0,1,59,43Z"/><path d="M10 40h9.59961a2.0001 2.0001 0 0 0 2-2V30a2.0001 2.0001 0 0 0-2-2H10a2.0001 2.0001 0 0 0-2 2v8A2.0001 2.0001 0 0 0 10 40zm2-8h5.59961v4H12zM33 44H10a2 2 0 0 0 0 4H33a2 2 0 0 0 0-4z"/><circle cx="46" cy="27" r="2"/><path d="M46,44H41a2,2,0,0,0,0,4h5a2,2,0,0,0,0-4Z"/></svg>