<svg xmlns="http://www.w3.org/2000/svg" viewBox="0 0 32 32"><path d="M29.17,19.38l-1.32-.22c-.06-.15-.12-.3-.19-.45l.78-1.08a1,1,0,0,0-.11-1.29L26.7,14.71a1,1,0,0,0-1.29-.11l-1.08.78-.45-.19-.22-1.31a1,1,0,0,0-1-.84h-2.3a1,1,0,0,0-.81.43A9.69,9.69,0,0,0,18,12V8A6,6,0,0,0,6,8v4A10,10,0,0,0,17,28.61a.93.93,0,0,0,.6-.17l1.08-.78.45.19.22,1.32a1,1,0,0,0,1,.83h2.3a1,1,0,0,0,1-.83l.22-1.32.45-.19,1.08.78a1,1,0,0,0,1.29-.11l1.63-1.63a1,1,0,0,0,.11-1.29l-.78-1.08c.07-.15.13-.3.19-.45l1.32-.22a1,1,0,0,0,.83-1v-2.3A1,1,0,0,0,29.17,19.38ZM12,4a4,4,0,0,1,4,4v2.86a10.28,10.28,0,0,0-8,0V8A4,4,0,0,1,12,4ZM4,20a8,8,0,0,1,3.56-6.65,8.11,8.11,0,0,1,8.89,0,8.25,8.25,0,0,1,1.82,1.72l-.64-.47a1,1,0,0,0-1.29.11l-1.63,1.63a1,1,0,0,0-.11,1.29l.78,1.08c-.07.15-.13.3-.19.45l-1.31.22a1,1,0,0,0-.84,1v2.3a1,1,0,0,0,.84,1l1.31.22c.06.15.12.3.19.45l-.78,1.08a1,1,0,0,0,.11,1.29l.58.59A8,8,0,0,1,4,20Zm24,1.82L26.91,22a1,1,0,0,0-.8.74,4.32,4.32,0,0,1-.48,1.16A1,1,0,0,0,25.68,25l.64.89-.43.43L25,25.68a1,1,0,0,0-1.09-.05,4.32,4.32,0,0,1-1.16.48,1,1,0,0,0-.74.8L21.82,28h-.6L21,26.91a1,1,0,0,0-.74-.8,4.13,4.13,0,0,1-1.15-.48,1,1,0,0,0-1.1.05l-.89.64-.43-.43.64-.89a1,1,0,0,0,.05-1.1,4.13,4.13,0,0,1-.48-1.15,1,1,0,0,0-.8-.74L15,21.82v-.6L16.13,21a1,1,0,0,0,.8-.74,4.13,4.13,0,0,1,.48-1.15,1,1,0,0,0-.05-1.1l-.64-.89.43-.43.89.64a1,1,0,0,0,1.1.05,4.13,4.13,0,0,1,1.15-.48,1,1,0,0,0,.74-.8L21.22,15h.6L22,16.13a1,1,0,0,0,.74.8,4.13,4.13,0,0,1,1.15.48,1,1,0,0,0,1.1-.05l.89-.64.43.43-.64.89a1,1,0,0,0-.05,1.1,4.13,4.13,0,0,1,.48,1.15,1,1,0,0,0,.8.74l1.09.19Z"/><path d="M21.5,18A3.5,3.5,0,1,0,25,21.5,3.5,3.5,0,0,0,21.5,18Zm0,5A1.5,1.5,0,1,1,23,21.5,1.5,1.5,0,0,1,21.5,23Z"/></svg>