<svg xmlns="http://www.w3.org/2000/svg" enable-background="new 0 0 403.819 403.819" viewBox="0 0 403.819 403.819"><path fill="#ffffff" d="M387.523,175.103L43.471,3.094C23.877-6.703,0.093,7.995,0.093,29.903v344.019c0,21.899,23.803,36.595,43.378,26.809
		l344.053-172.009C409.12,217.923,409.133,185.907,387.523,175.103z M180.565,201.912L32.093,350.383V53.441l43.167,43.168
		l22.628-22.628L82.081,58.173l161.487,80.736l-40.376,40.376l-51.067-51.067l-22.627,22.627L180.565,201.912z M203.192,224.539
		l40.376,40.376L82.081,345.651L203.192,224.539z M273.739,249.831l-47.919-47.919l47.919-47.919l95.848,47.919L273.739,249.831z"/><rect width="32" height="29.196" x="98.694" y="98.816" transform="rotate(-45.001 114.69 113.415)"/></svg>