<svg xmlns="http://www.w3.org/2000/svg" data-name="Layer 1" viewBox="0 0 64 64"><polygon fill="#abc4ff" points="54 62 7 62 7 8 47 8 47 26 54 26 54 62"/><path fill="#c1d3fe" d="M54,62h0A47,47,0,0,1,7,15V8H47V26h7Z"/><polyline fill="#a0c4ff" points="52 56 13 56 13 2 47 2 47 26"/><path fill="#b6ccfe" d="M52,56H13V36A34,34,0,0,1,47,2h0V26"/><path fill="#a0c4ff" d="M47,26H57a0,0,0,0,1,0,0V51a5,5,0,0,1-5,5h0a5,5,0,0,1-5-5V26a0,0,0,0,1,0,0Z"/><path fill="#d7e3fc" d="M57 26h0a0 0 0 0 1 0 0V51a5 5 0 0 1-5 5h0a5 5 0 0 1-5-5V36A10 10 0 0 1 57 26zM25 33H19a1 1 0 0 1 0-2h6a1 1 0 0 1 0 2zM41 33H35a1 1 0 0 1 0-2h6a1 1 0 0 1 0 2zM41 42H19a1 1 0 0 1 0-2H41a1 1 0 0 1 0 2zM41 51H19a1 1 0 0 1 0-2H41a1 1 0 0 1 0 2z"/><path fill="#abc4ff" d="M34,12a4,4,0,1,1-.54-2A4,4,0,0,1,34,12Z"/><ellipse cx="30" cy="10" fill="#bdb2ff" rx="3.46" ry="2"/><path fill="#abc4ff" d="M40,26H20V24a6,6,0,0,1,6-6l4,2,4-2a6,6,0,0,1,6,6Z"/></svg>